<mxfile host="app.diagrams.net" modified="2024-02-09T05:51:47.442Z" agent="Mozilla/5.0 (Windows NT 10.0; Win64; x64) AppleWebKit/537.36 (KHTML, like Gecko) Chrome/121.0.0.0 Safari/537.36" etag="TgSpLESkjZ2mYFwWaspT" version="23.1.2" type="github">
  <diagram name="Page-1" id="FViHMMrETYBiLxqLW-Xy">
    <mxGraphModel dx="2100" dy="1146" grid="1" gridSize="10" guides="1" tooltips="1" connect="1" arrows="1" fold="1" page="1" pageScale="1" pageWidth="1100" pageHeight="850" math="0" shadow="0">
      <root>
        <mxCell id="0" />
        <mxCell id="1" parent="0" />
        <mxCell id="d_9dFL2TfAvrlpX_3OGT-5" value="INPUTS STAGE" style="swimlane;whiteSpace=wrap;html=1;labelBackgroundColor=none;rounded=1;strokeWidth=2;shadow=1;fillColor=#f8cecc;strokeColor=#b85450;" parent="1" vertex="1">
          <mxGeometry x="70" y="70" width="190" height="480" as="geometry" />
        </mxCell>
        <mxCell id="d_9dFL2TfAvrlpX_3OGT-6" value="LIDAR PCD" style="rounded=1;whiteSpace=wrap;html=1;labelBackgroundColor=none;strokeWidth=2;shadow=1;fillColor=#182E3E;strokeColor=#FFFFFF;fontColor=#FFFFFF;" parent="d_9dFL2TfAvrlpX_3OGT-5" vertex="1">
          <mxGeometry x="35" y="90" width="120" height="60" as="geometry" />
        </mxCell>
        <mxCell id="d_9dFL2TfAvrlpX_3OGT-7" value="2D Images" style="rounded=1;whiteSpace=wrap;html=1;labelBackgroundColor=none;strokeWidth=2;shadow=1;fillColor=#182E3E;strokeColor=#FFFFFF;fontColor=#FFFFFF;" parent="d_9dFL2TfAvrlpX_3OGT-5" vertex="1">
          <mxGeometry x="35" y="320" width="120" height="60" as="geometry" />
        </mxCell>
        <mxCell id="d_9dFL2TfAvrlpX_3OGT-8" value="Calibration Data" style="rounded=1;whiteSpace=wrap;html=1;labelBackgroundColor=none;strokeWidth=2;shadow=1;fillColor=#182E3E;strokeColor=#FFFFFF;fontColor=#FFFFFF;" parent="d_9dFL2TfAvrlpX_3OGT-5" vertex="1">
          <mxGeometry x="35" y="200" width="120" height="60" as="geometry" />
        </mxCell>
        <mxCell id="d_9dFL2TfAvrlpX_3OGT-9" value="OBJECT DETECTION STAGE" style="swimlane;whiteSpace=wrap;html=1;labelBackgroundColor=none;rounded=1;strokeWidth=2;shadow=1;fillColor=#dae8fc;strokeColor=#6c8ebf;" parent="1" vertex="1">
          <mxGeometry x="300" y="70" width="230" height="480" as="geometry" />
        </mxCell>
        <mxCell id="d_9dFL2TfAvrlpX_3OGT-24" value="" style="edgeStyle=orthogonalEdgeStyle;rounded=1;orthogonalLoop=1;jettySize=auto;html=1;labelBackgroundColor=none;fontColor=default;strokeWidth=2;shadow=1;strokeColor=#23445D;" parent="d_9dFL2TfAvrlpX_3OGT-9" source="d_9dFL2TfAvrlpX_3OGT-10" target="d_9dFL2TfAvrlpX_3OGT-23" edge="1">
          <mxGeometry relative="1" as="geometry" />
        </mxCell>
        <mxCell id="d_9dFL2TfAvrlpX_3OGT-10" value="3D Detector" style="rounded=1;whiteSpace=wrap;html=1;labelBackgroundColor=none;strokeWidth=2;shadow=1;fillColor=#182E3E;strokeColor=#FFFFFF;fontColor=#FFFFFF;" parent="d_9dFL2TfAvrlpX_3OGT-9" vertex="1">
          <mxGeometry x="65" y="110" width="120" height="60" as="geometry" />
        </mxCell>
        <mxCell id="d_9dFL2TfAvrlpX_3OGT-25" value="" style="edgeStyle=orthogonalEdgeStyle;rounded=1;orthogonalLoop=1;jettySize=auto;html=1;labelBackgroundColor=none;fontColor=default;strokeWidth=2;shadow=1;strokeColor=#23445D;" parent="d_9dFL2TfAvrlpX_3OGT-9" source="d_9dFL2TfAvrlpX_3OGT-11" target="d_9dFL2TfAvrlpX_3OGT-23" edge="1">
          <mxGeometry relative="1" as="geometry" />
        </mxCell>
        <mxCell id="d_9dFL2TfAvrlpX_3OGT-11" value="2D Detection" style="rounded=1;whiteSpace=wrap;html=1;labelBackgroundColor=none;strokeWidth=2;shadow=1;fillColor=#182E3E;strokeColor=#FFFFFF;fontColor=#FFFFFF;" parent="d_9dFL2TfAvrlpX_3OGT-9" vertex="1">
          <mxGeometry x="65" y="270" width="120" height="60" as="geometry" />
        </mxCell>
        <mxCell id="d_9dFL2TfAvrlpX_3OGT-23" value="IoU based Matching" style="rounded=1;whiteSpace=wrap;html=1;labelBackgroundColor=none;strokeWidth=2;shadow=1;fillColor=#182E3E;strokeColor=#FFFFFF;fontColor=#FFFFFF;" parent="d_9dFL2TfAvrlpX_3OGT-9" vertex="1">
          <mxGeometry x="65" y="190" width="120" height="60" as="geometry" />
        </mxCell>
        <mxCell id="d_9dFL2TfAvrlpX_3OGT-12" style="edgeStyle=orthogonalEdgeStyle;rounded=1;orthogonalLoop=1;jettySize=auto;html=1;labelBackgroundColor=none;fontColor=default;strokeWidth=2;shadow=1;strokeColor=#23445D;" parent="1" source="d_9dFL2TfAvrlpX_3OGT-6" target="d_9dFL2TfAvrlpX_3OGT-10" edge="1">
          <mxGeometry relative="1" as="geometry">
            <Array as="points">
              <mxPoint x="280" y="200" />
              <mxPoint x="280" y="210" />
            </Array>
          </mxGeometry>
        </mxCell>
        <mxCell id="d_9dFL2TfAvrlpX_3OGT-15" style="edgeStyle=orthogonalEdgeStyle;rounded=1;orthogonalLoop=1;jettySize=auto;html=1;entryX=0;entryY=0.75;entryDx=0;entryDy=0;labelBackgroundColor=none;fontColor=default;strokeWidth=2;shadow=1;strokeColor=#23445D;" parent="1" source="d_9dFL2TfAvrlpX_3OGT-8" target="d_9dFL2TfAvrlpX_3OGT-10" edge="1">
          <mxGeometry relative="1" as="geometry">
            <Array as="points">
              <mxPoint x="280" y="310" />
              <mxPoint x="280" y="225" />
            </Array>
          </mxGeometry>
        </mxCell>
        <mxCell id="d_9dFL2TfAvrlpX_3OGT-18" style="edgeStyle=orthogonalEdgeStyle;rounded=1;orthogonalLoop=1;jettySize=auto;html=1;entryX=0;entryY=0.75;entryDx=0;entryDy=0;labelBackgroundColor=none;fontColor=default;strokeWidth=2;shadow=1;strokeColor=#23445D;" parent="1" source="d_9dFL2TfAvrlpX_3OGT-7" target="d_9dFL2TfAvrlpX_3OGT-11" edge="1">
          <mxGeometry relative="1" as="geometry">
            <Array as="points">
              <mxPoint x="280" y="430" />
              <mxPoint x="280" y="385" />
            </Array>
          </mxGeometry>
        </mxCell>
        <mxCell id="d_9dFL2TfAvrlpX_3OGT-20" value="OBJECT TRACKING AND ASSOCIATION STAGE" style="swimlane;whiteSpace=wrap;html=1;labelBackgroundColor=none;rounded=1;strokeWidth=2;shadow=1;fillColor=#d5e8d4;strokeColor=#82b366;" parent="1" vertex="1">
          <mxGeometry x="572" y="70" width="800" height="480" as="geometry" />
        </mxCell>
        <mxCell id="d_9dFL2TfAvrlpX_3OGT-39" style="edgeStyle=orthogonalEdgeStyle;rounded=1;orthogonalLoop=1;jettySize=auto;html=1;entryX=0;entryY=0.5;entryDx=0;entryDy=0;labelBackgroundColor=none;fontColor=default;strokeWidth=2;shadow=1;strokeColor=#23445D;" parent="d_9dFL2TfAvrlpX_3OGT-20" source="d_9dFL2TfAvrlpX_3OGT-21" target="d_9dFL2TfAvrlpX_3OGT-32" edge="1">
          <mxGeometry relative="1" as="geometry" />
        </mxCell>
        <mxCell id="d_9dFL2TfAvrlpX_3OGT-21" value="Objects detected by 3D and 2D detector" style="rounded=1;whiteSpace=wrap;html=1;labelBackgroundColor=none;strokeWidth=2;shadow=1;fillColor=#182E3E;strokeColor=#FFFFFF;fontColor=#FFFFFF;" parent="d_9dFL2TfAvrlpX_3OGT-20" vertex="1">
          <mxGeometry x="65" y="110" width="120" height="60" as="geometry" />
        </mxCell>
        <mxCell id="d_9dFL2TfAvrlpX_3OGT-41" style="edgeStyle=orthogonalEdgeStyle;rounded=1;orthogonalLoop=1;jettySize=auto;html=1;labelBackgroundColor=none;fontColor=default;strokeWidth=2;shadow=1;strokeColor=#23445D;" parent="d_9dFL2TfAvrlpX_3OGT-20" source="d_9dFL2TfAvrlpX_3OGT-22" target="d_9dFL2TfAvrlpX_3OGT-38" edge="1">
          <mxGeometry relative="1" as="geometry" />
        </mxCell>
        <mxCell id="d_9dFL2TfAvrlpX_3OGT-22" value="&amp;nbsp;Object detected by only 3D detector" style="rounded=1;whiteSpace=wrap;html=1;labelBackgroundColor=none;strokeWidth=2;shadow=1;fillColor=#182E3E;strokeColor=#FFFFFF;fontColor=#FFFFFF;" parent="d_9dFL2TfAvrlpX_3OGT-20" vertex="1">
          <mxGeometry x="65" y="190" width="120" height="60" as="geometry" />
        </mxCell>
        <mxCell id="d_9dFL2TfAvrlpX_3OGT-44" style="edgeStyle=orthogonalEdgeStyle;rounded=1;orthogonalLoop=1;jettySize=auto;html=1;labelBackgroundColor=none;fontColor=default;strokeWidth=2;shadow=1;strokeColor=#23445D;" parent="d_9dFL2TfAvrlpX_3OGT-20" source="d_9dFL2TfAvrlpX_3OGT-26" edge="1">
          <mxGeometry relative="1" as="geometry">
            <mxPoint x="255" y="300" as="targetPoint" />
          </mxGeometry>
        </mxCell>
        <mxCell id="d_9dFL2TfAvrlpX_3OGT-26" value="&amp;nbsp;Object detected by only 2D detector" style="rounded=1;whiteSpace=wrap;html=1;labelBackgroundColor=none;strokeWidth=2;shadow=1;fillColor=#182E3E;strokeColor=#FFFFFF;fontColor=#FFFFFF;" parent="d_9dFL2TfAvrlpX_3OGT-20" vertex="1">
          <mxGeometry x="65" y="270" width="120" height="60" as="geometry" />
        </mxCell>
        <mxCell id="d_9dFL2TfAvrlpX_3OGT-46" style="edgeStyle=orthogonalEdgeStyle;rounded=1;orthogonalLoop=1;jettySize=auto;html=1;labelBackgroundColor=none;fontColor=default;strokeWidth=2;shadow=1;strokeColor=#23445D;" parent="d_9dFL2TfAvrlpX_3OGT-20" source="d_9dFL2TfAvrlpX_3OGT-30" target="d_9dFL2TfAvrlpX_3OGT-43" edge="1">
          <mxGeometry relative="1" as="geometry" />
        </mxCell>
        <mxCell id="d_9dFL2TfAvrlpX_3OGT-30" value="UKF 2D" style="rounded=1;whiteSpace=wrap;html=1;labelBackgroundColor=none;strokeWidth=2;shadow=1;fillColor=#182E3E;strokeColor=#FFFFFF;fontColor=#FFFFFF;" parent="d_9dFL2TfAvrlpX_3OGT-20" vertex="1">
          <mxGeometry x="420" y="370" width="120" height="60" as="geometry" />
        </mxCell>
        <mxCell id="d_9dFL2TfAvrlpX_3OGT-74" style="edgeStyle=orthogonalEdgeStyle;rounded=1;orthogonalLoop=1;jettySize=auto;html=1;entryX=0.5;entryY=0;entryDx=0;entryDy=0;labelBackgroundColor=none;fontColor=default;strokeWidth=2;shadow=1;strokeColor=#23445D;" parent="d_9dFL2TfAvrlpX_3OGT-20" source="d_9dFL2TfAvrlpX_3OGT-31" target="d_9dFL2TfAvrlpX_3OGT-32" edge="1">
          <mxGeometry relative="1" as="geometry" />
        </mxCell>
        <mxCell id="d_9dFL2TfAvrlpX_3OGT-31" value="UKF 3D" style="rounded=1;whiteSpace=wrap;html=1;labelBackgroundColor=none;strokeWidth=2;shadow=1;fillColor=#182E3E;strokeColor=#FFFFFF;fontColor=#FFFFFF;" parent="d_9dFL2TfAvrlpX_3OGT-20" vertex="1">
          <mxGeometry x="410" y="50" width="120" height="60" as="geometry" />
        </mxCell>
        <mxCell id="d_9dFL2TfAvrlpX_3OGT-40" value="" style="edgeStyle=orthogonalEdgeStyle;rounded=1;orthogonalLoop=1;jettySize=auto;html=1;labelBackgroundColor=none;fontColor=default;strokeWidth=2;shadow=1;strokeColor=#23445D;" parent="d_9dFL2TfAvrlpX_3OGT-20" source="d_9dFL2TfAvrlpX_3OGT-32" target="d_9dFL2TfAvrlpX_3OGT-38" edge="1">
          <mxGeometry relative="1" as="geometry" />
        </mxCell>
        <mxCell id="d_9dFL2TfAvrlpX_3OGT-57" style="edgeStyle=orthogonalEdgeStyle;rounded=1;orthogonalLoop=1;jettySize=auto;html=1;entryX=0.5;entryY=0;entryDx=0;entryDy=0;labelBackgroundColor=none;fontColor=default;strokeWidth=2;shadow=1;strokeColor=#23445D;" parent="d_9dFL2TfAvrlpX_3OGT-20" source="d_9dFL2TfAvrlpX_3OGT-32" target="d_9dFL2TfAvrlpX_3OGT-47" edge="1">
          <mxGeometry relative="1" as="geometry" />
        </mxCell>
        <mxCell id="d_9dFL2TfAvrlpX_3OGT-32" value="First Stage association" style="rounded=1;whiteSpace=wrap;html=1;labelBackgroundColor=none;strokeWidth=2;shadow=1;fillColor=#182E3E;strokeColor=#FFFFFF;fontColor=#FFFFFF;" parent="d_9dFL2TfAvrlpX_3OGT-20" vertex="1">
          <mxGeometry x="260" y="110" width="120" height="60" as="geometry" />
        </mxCell>
        <mxCell id="d_9dFL2TfAvrlpX_3OGT-72" style="edgeStyle=orthogonalEdgeStyle;rounded=1;orthogonalLoop=1;jettySize=auto;html=1;labelBackgroundColor=none;fontColor=default;strokeWidth=2;shadow=1;strokeColor=#23445D;" parent="d_9dFL2TfAvrlpX_3OGT-20" source="d_9dFL2TfAvrlpX_3OGT-33" target="d_9dFL2TfAvrlpX_3OGT-31" edge="1">
          <mxGeometry relative="1" as="geometry">
            <Array as="points">
              <mxPoint x="720" y="80" />
            </Array>
          </mxGeometry>
        </mxCell>
        <mxCell id="d_9dFL2TfAvrlpX_3OGT-33" value="3D Tracks" style="rounded=1;whiteSpace=wrap;html=1;labelBackgroundColor=none;strokeWidth=2;shadow=1;fillColor=#182E3E;strokeColor=#FFFFFF;fontColor=#FFFFFF;" parent="d_9dFL2TfAvrlpX_3OGT-20" vertex="1">
          <mxGeometry x="660" y="110" width="120" height="60" as="geometry" />
        </mxCell>
        <mxCell id="d_9dFL2TfAvrlpX_3OGT-37" style="edgeStyle=orthogonalEdgeStyle;rounded=1;orthogonalLoop=1;jettySize=auto;html=1;labelBackgroundColor=none;fontColor=default;strokeWidth=2;shadow=1;strokeColor=#23445D;" parent="d_9dFL2TfAvrlpX_3OGT-20" source="d_9dFL2TfAvrlpX_3OGT-34" target="d_9dFL2TfAvrlpX_3OGT-30" edge="1">
          <mxGeometry relative="1" as="geometry">
            <Array as="points">
              <mxPoint x="720" y="410" />
            </Array>
          </mxGeometry>
        </mxCell>
        <mxCell id="d_9dFL2TfAvrlpX_3OGT-34" value="2D Tracks" style="rounded=1;whiteSpace=wrap;html=1;labelBackgroundColor=none;strokeWidth=2;shadow=1;fillColor=#182E3E;strokeColor=#FFFFFF;fontColor=#FFFFFF;" parent="d_9dFL2TfAvrlpX_3OGT-20" vertex="1">
          <mxGeometry x="660" y="320" width="120" height="60" as="geometry" />
        </mxCell>
        <mxCell id="d_9dFL2TfAvrlpX_3OGT-38" value="Second Stage of association" style="rounded=1;whiteSpace=wrap;html=1;labelBackgroundColor=none;strokeWidth=2;shadow=1;fillColor=#182E3E;strokeColor=#FFFFFF;fontColor=#FFFFFF;" parent="d_9dFL2TfAvrlpX_3OGT-20" vertex="1">
          <mxGeometry x="260" y="190" width="120" height="60" as="geometry" />
        </mxCell>
        <mxCell id="d_9dFL2TfAvrlpX_3OGT-58" style="edgeStyle=orthogonalEdgeStyle;rounded=1;orthogonalLoop=1;jettySize=auto;html=1;entryX=0.5;entryY=1;entryDx=0;entryDy=0;labelBackgroundColor=none;fontColor=default;strokeWidth=2;shadow=1;strokeColor=#23445D;" parent="d_9dFL2TfAvrlpX_3OGT-20" source="d_9dFL2TfAvrlpX_3OGT-43" target="d_9dFL2TfAvrlpX_3OGT-47" edge="1">
          <mxGeometry relative="1" as="geometry">
            <Array as="points">
              <mxPoint x="508" y="300" />
            </Array>
          </mxGeometry>
        </mxCell>
        <mxCell id="d_9dFL2TfAvrlpX_3OGT-43" value="Third Stage of association" style="rounded=1;whiteSpace=wrap;html=1;labelBackgroundColor=none;strokeWidth=2;shadow=1;fillColor=#182E3E;strokeColor=#FFFFFF;fontColor=#FFFFFF;" parent="d_9dFL2TfAvrlpX_3OGT-20" vertex="1">
          <mxGeometry x="260" y="270" width="120" height="60" as="geometry" />
        </mxCell>
        <mxCell id="CUG_lxz295iJ2zpjWYdn-2" style="edgeStyle=orthogonalEdgeStyle;rounded=1;orthogonalLoop=1;jettySize=auto;html=1;labelBackgroundColor=none;fontColor=default;strokeWidth=2;shadow=1;strokeColor=#23445D;" parent="d_9dFL2TfAvrlpX_3OGT-20" source="d_9dFL2TfAvrlpX_3OGT-47" target="d_9dFL2TfAvrlpX_3OGT-48" edge="1">
          <mxGeometry relative="1" as="geometry" />
        </mxCell>
        <mxCell id="d_9dFL2TfAvrlpX_3OGT-47" value="TRACK MANAGEMENT" style="swimlane;whiteSpace=wrap;html=1;labelBackgroundColor=none;rounded=1;strokeWidth=2;shadow=1;fillColor=#182E3E;strokeColor=#FFFFFF;fontColor=#FFFFFF;" parent="d_9dFL2TfAvrlpX_3OGT-20" vertex="1">
          <mxGeometry x="430" y="160" width="155" height="120" as="geometry" />
        </mxCell>
        <mxCell id="d_9dFL2TfAvrlpX_3OGT-52" value="Track Initialize&lt;br&gt;Track Update&lt;br&gt;Track Death&lt;br&gt;Track Reappearance" style="text;html=1;align=center;verticalAlign=middle;resizable=0;points=[];autosize=1;labelBackgroundColor=none;rounded=1;strokeWidth=2;shadow=1;fontColor=#182E3E;" parent="d_9dFL2TfAvrlpX_3OGT-47" vertex="1">
          <mxGeometry x="7.5" y="35" width="140" height="70" as="geometry" />
        </mxCell>
        <mxCell id="CUG_lxz295iJ2zpjWYdn-3" style="edgeStyle=orthogonalEdgeStyle;rounded=1;orthogonalLoop=1;jettySize=auto;html=1;entryX=0.5;entryY=1;entryDx=0;entryDy=0;labelBackgroundColor=none;fontColor=default;strokeWidth=2;shadow=1;strokeColor=#23445D;" parent="d_9dFL2TfAvrlpX_3OGT-20" source="d_9dFL2TfAvrlpX_3OGT-48" target="d_9dFL2TfAvrlpX_3OGT-33" edge="1">
          <mxGeometry relative="1" as="geometry" />
        </mxCell>
        <mxCell id="CUG_lxz295iJ2zpjWYdn-4" style="edgeStyle=orthogonalEdgeStyle;rounded=1;orthogonalLoop=1;jettySize=auto;html=1;entryX=0.5;entryY=0;entryDx=0;entryDy=0;labelBackgroundColor=none;fontColor=default;strokeWidth=2;shadow=1;strokeColor=#23445D;" parent="d_9dFL2TfAvrlpX_3OGT-20" source="d_9dFL2TfAvrlpX_3OGT-48" target="d_9dFL2TfAvrlpX_3OGT-34" edge="1">
          <mxGeometry relative="1" as="geometry" />
        </mxCell>
        <mxCell id="d_9dFL2TfAvrlpX_3OGT-48" value="Fourth Stage association" style="rounded=1;whiteSpace=wrap;html=1;labelBackgroundColor=none;strokeWidth=2;shadow=1;fillColor=#182E3E;strokeColor=#FFFFFF;fontColor=#FFFFFF;" parent="d_9dFL2TfAvrlpX_3OGT-20" vertex="1">
          <mxGeometry x="660" y="210" width="120" height="60" as="geometry" />
        </mxCell>
        <mxCell id="d_9dFL2TfAvrlpX_3OGT-56" value="" style="edgeStyle=orthogonalEdgeStyle;rounded=1;orthogonalLoop=1;jettySize=auto;html=1;labelBackgroundColor=none;fontColor=default;strokeWidth=2;shadow=1;strokeColor=#23445D;" parent="d_9dFL2TfAvrlpX_3OGT-20" source="d_9dFL2TfAvrlpX_3OGT-38" target="d_9dFL2TfAvrlpX_3OGT-52" edge="1">
          <mxGeometry relative="1" as="geometry">
            <Array as="points">
              <mxPoint x="420" y="230" />
              <mxPoint x="420" y="230" />
            </Array>
          </mxGeometry>
        </mxCell>
        <mxCell id="d_9dFL2TfAvrlpX_3OGT-27" style="edgeStyle=orthogonalEdgeStyle;rounded=1;orthogonalLoop=1;jettySize=auto;html=1;entryX=0.006;entryY=0.378;entryDx=0;entryDy=0;entryPerimeter=0;labelBackgroundColor=none;fontColor=default;strokeWidth=2;shadow=1;strokeColor=#23445D;" parent="1" source="d_9dFL2TfAvrlpX_3OGT-23" target="d_9dFL2TfAvrlpX_3OGT-21" edge="1">
          <mxGeometry relative="1" as="geometry">
            <Array as="points">
              <mxPoint x="580" y="290" />
              <mxPoint x="580" y="203" />
              <mxPoint x="636" y="203" />
            </Array>
          </mxGeometry>
        </mxCell>
        <mxCell id="d_9dFL2TfAvrlpX_3OGT-28" style="edgeStyle=orthogonalEdgeStyle;rounded=1;orthogonalLoop=1;jettySize=auto;html=1;labelBackgroundColor=none;fontColor=default;strokeWidth=2;shadow=1;strokeColor=#23445D;" parent="1" source="d_9dFL2TfAvrlpX_3OGT-23" target="d_9dFL2TfAvrlpX_3OGT-22" edge="1">
          <mxGeometry relative="1" as="geometry" />
        </mxCell>
        <mxCell id="d_9dFL2TfAvrlpX_3OGT-29" style="edgeStyle=orthogonalEdgeStyle;rounded=1;orthogonalLoop=1;jettySize=auto;html=1;entryX=0;entryY=0.5;entryDx=0;entryDy=0;labelBackgroundColor=none;fontColor=default;strokeWidth=2;shadow=1;strokeColor=#23445D;" parent="1" source="d_9dFL2TfAvrlpX_3OGT-23" target="d_9dFL2TfAvrlpX_3OGT-26" edge="1">
          <mxGeometry relative="1" as="geometry">
            <Array as="points">
              <mxPoint x="580" y="290" />
              <mxPoint x="580" y="370" />
            </Array>
          </mxGeometry>
        </mxCell>
        <mxCell id="d_9dFL2TfAvrlpX_3OGT-60" value="VISUALIZATION STAGE" style="swimlane;whiteSpace=wrap;html=1;labelBackgroundColor=none;rounded=1;strokeWidth=2;shadow=1;fillColor=#f5f5f5;strokeColor=#666666;fontColor=#333333;" parent="1" vertex="1">
          <mxGeometry x="1420" y="70" width="230" height="480" as="geometry" />
        </mxCell>
        <mxCell id="d_9dFL2TfAvrlpX_3OGT-66" value="LIDAR PCD with 3D Bounding Boxes" style="rounded=1;whiteSpace=wrap;html=1;labelBackgroundColor=none;strokeWidth=2;shadow=1;fillColor=#182E3E;strokeColor=#FFFFFF;fontColor=#FFFFFF;" parent="d_9dFL2TfAvrlpX_3OGT-60" vertex="1">
          <mxGeometry x="70" y="116" width="120" height="60" as="geometry" />
        </mxCell>
        <mxCell id="d_9dFL2TfAvrlpX_3OGT-67" value="2D Image with 3D Bounding Boxes" style="rounded=1;whiteSpace=wrap;html=1;labelBackgroundColor=none;strokeWidth=2;shadow=1;fillColor=#182E3E;strokeColor=#FFFFFF;fontColor=#FFFFFF;" parent="d_9dFL2TfAvrlpX_3OGT-60" vertex="1">
          <mxGeometry x="70" y="245" width="120" height="60" as="geometry" />
        </mxCell>
        <mxCell id="d_9dFL2TfAvrlpX_3OGT-68" style="edgeStyle=orthogonalEdgeStyle;rounded=1;orthogonalLoop=1;jettySize=auto;html=1;entryX=0;entryY=0.5;entryDx=0;entryDy=0;labelBackgroundColor=none;fontColor=default;strokeWidth=2;shadow=1;strokeColor=#23445D;" parent="1" source="d_9dFL2TfAvrlpX_3OGT-33" target="d_9dFL2TfAvrlpX_3OGT-66" edge="1">
          <mxGeometry relative="1" as="geometry">
            <Array as="points">
              <mxPoint x="1440" y="210" />
              <mxPoint x="1440" y="216" />
            </Array>
          </mxGeometry>
        </mxCell>
        <mxCell id="d_9dFL2TfAvrlpX_3OGT-69" style="edgeStyle=orthogonalEdgeStyle;rounded=1;orthogonalLoop=1;jettySize=auto;html=1;entryX=0;entryY=0.5;entryDx=0;entryDy=0;labelBackgroundColor=none;fontColor=default;strokeWidth=2;shadow=1;strokeColor=#23445D;" parent="1" source="d_9dFL2TfAvrlpX_3OGT-33" target="d_9dFL2TfAvrlpX_3OGT-67" edge="1">
          <mxGeometry relative="1" as="geometry">
            <Array as="points">
              <mxPoint x="1430" y="220" />
              <mxPoint x="1430" y="345" />
            </Array>
          </mxGeometry>
        </mxCell>
        <mxCell id="d_9dFL2TfAvrlpX_3OGT-71" style="edgeStyle=orthogonalEdgeStyle;rounded=1;orthogonalLoop=1;jettySize=auto;html=1;entryX=0.5;entryY=0;entryDx=0;entryDy=0;labelBackgroundColor=none;fontColor=default;strokeWidth=2;shadow=1;strokeColor=#23445D;" parent="1" source="d_9dFL2TfAvrlpX_3OGT-6" target="d_9dFL2TfAvrlpX_3OGT-66" edge="1">
          <mxGeometry relative="1" as="geometry">
            <Array as="points">
              <mxPoint x="165" y="110" />
              <mxPoint x="1550" y="110" />
            </Array>
          </mxGeometry>
        </mxCell>
      </root>
    </mxGraphModel>
  </diagram>
</mxfile>
